<svg width="30" height="31" xmlns="http://www.w3.org/2000/svg"><path d="M19.677 15.513a.375.375 0 01-.325.366l-5.958.696c.029.131.074.263.074.4 0 .131-.08.25-.137.365h5.25c.2 0 .365.165.365.365 0 .2-.165.365-.365.365h-5.844a.367.367 0 01-.365-.365c0-.177.257-.605.348-.782l-1.01-4.697h-1.164a.367.367 0 01-.365-.365c0-.2.165-.365.365-.365h1.46c.383 0 .395.456.452.73h6.854c.199 0 .365.166.365.366zm-6.574 2.557c.399 0 .73.331.73.731 0 .4-.331.73-.73.73a.736.736 0 01-.731-.73c0-.4.33-.73.73-.73zm4.383.731c0-.4.33-.73.73-.73.399 0 .73.33.73.73 0 .4-.331.73-.73.73a.735.735 0 01-.73-.73z" fill="#fff" opacity=".3"/><path d="M24.9 15.514c0 5.477-4.44 9.917-9.916 9.917-5.477 0-9.916-4.44-9.916-9.917 0-5.477 4.439-9.917 9.916-9.917s9.917 4.44 9.917 9.917z" fill="none" stroke="#fff" stroke-miterlimit="20" opacity=".3"/></svg>