<svg width="34" height="33" xmlns="http://www.w3.org/2000/svg"><path d="M33.462 13.685l-7.328 7.146 1.736 10.095c.02.14.02.261.02.404 0 .525-.242 1.01-.827 1.01-.283 0-.565-.102-.808-.243l-9.064-4.766-9.064 4.766c-.262.141-.525.242-.808.242-.585 0-.847-.484-.847-1.009 0-.143.02-.264.04-.404l1.736-10.095L.9 13.685c-.242-.262-.504-.605-.504-.968 0-.606.625-.848 1.13-.928l10.134-1.475 4.542-9.186c.182-.382.525-.826.989-.826.464 0 .808.444.989.826l4.542 9.186 10.135 1.475c.484.08 1.13.322 1.13.928 0 .363-.263.706-.525.968z" fill="#fbb040"/></svg>